<?xml version="1.0" encoding="UTF-8"?>
<svg width="256" height="256" viewBox="0 0 256 256" xmlns="http://www.w3.org/2000/svg">
  <!-- Background circle -->
  <circle cx="128" cy="128" r="120" fill="#2196F3" stroke="#1976D2" stroke-width="4"/>
  
  <!-- File sharing icon -->
  <g transform="translate(128, 128)">
    <!-- Cloud shape -->
    <path d="M-40,-20 C-50,-35 -30,-50 -10,-45 C0,-55 20,-55 30,-45 C50,-50 70,-35 60,-20 L60,-10 C60,0 50,10 40,10 L-40,10 C-50,10 -60,0 -60,-10 Z" 
          fill="white" opacity="0.9"/>
    
    <!-- Upload arrow -->
    <path d="M-5,20 L5,20 L5,0 L15,-5 L0,-25 L-15,-5 L-5,0 Z" 
          fill="white"/>
    
    <!-- File icons -->
    <rect x="-25" y="25" width="15" height="20" rx="2" fill="white" opacity="0.8"/>
    <rect x="-5" y="30" width="15" height="20" rx="2" fill="white" opacity="0.8"/>
    <rect x="15" y="25" width="15" height="20" rx="2" fill="white" opacity="0.8"/>
  </g>
  
  <!-- App name -->
  <text x="128" y="220" text-anchor="middle" font-family="Arial, sans-serif" font-size="16" fill="#1976D2" font-weight="bold">
    File Share
  </text>
</svg>